<svg xmlns="http://www.w3.org/2000/svg" version="1.1" xmlns:xlink="http://www.w3.org/1999/xlink" xmlns:svgjs="http://svgjs.com/svgjs" width="1440" height="100" preserveAspectRatio="none" viewBox="0 0 1440 100"><g mask="url(&quot;#SvgjsMask1521&quot;)" fill="none"><rect width="1440" height="100" x="0" y="0" fill="url(#SvgjsLinearGradient1522)"></rect><g transform="translate(475.2, 0)" stroke-linecap="round" stroke="url(#SvgjsLinearGradient1523)"><path d="M362.5 31.205 L362.5 68.795" stroke-width="9.75"></path><path d="M375.5 48.855 L375.5 51.145" stroke-width="9.75"></path><path d="M388.5 35.045 L388.5 64.955" stroke-width="9.75"></path><path d="M401.5 42.755 L401.5 57.255" stroke-width="9.75"></path><path d="M414.5 51.855 L414.5 48.145" stroke-width="9.75"></path><path d="M427.5 50.605 L427.5 49.395" stroke-width="9.75"></path><path d="M440.5 34.765 L440.5 65.235" stroke-width="9.75"></path><path d="M453.5 47.715 L453.5 52.285" stroke-width="9.75"></path><path d="M466.5 46.335 L466.5 53.665" stroke-width="9.75"></path><path d="M479.5 41.335 L479.5 58.665" stroke-width="9.75"></path><path d="M492.5 29.895 L492.5 70.105" stroke-width="9.75"></path><path d="M505.5 36.985 L505.5 63.015" stroke-width="9.75"></path><path d="M518.5 38.635 L518.5 61.364999999999995" stroke-width="9.75"></path><path d="M531.5 47.145 L531.5 52.855" stroke-width="9.75"></path><path d="M544.5 31.095 L544.5 68.905" stroke-width="9.75"></path><path d="M557.5 43.525 L557.5 56.475" stroke-width="9.75"></path><path d="M570.5 40.855 L570.5 59.155" stroke-width="9.75"></path><path d="M583.5 37.965 L583.5 62.035" stroke-width="9.75"></path><path d="M596.5 31.305 L596.5 68.685" stroke-width="9.75"></path><path d="M609.5 37.595 L609.5 62.405" stroke-width="9.75"></path><path d="M622.5 38.375 L622.5 61.625" stroke-width="9.75"></path><path d="M635.5 42.505 L635.5 57.505" stroke-width="9.75"></path><path d="M648.5 47.365 L648.5 52.635" stroke-width="9.75"></path><path d="M661.5 38.785 L661.5 61.215" stroke-width="9.75"></path><path d="M674.5 38.175 L674.5 61.825" stroke-width="9.75"></path><path d="M687.5 30.395 L687.5 40.144999999999996" stroke-width="9.75"></path><path d="M687.5 54.769999999999996 L687.5 69.605" stroke-width="9.75"></path><path d="M700.5 38.605 L700.5 61.405" stroke-width="9.75"></path><path d="M713.5 37.145 L713.5 62.855000000000004" stroke-width="9.75"></path><path d="M726.5 36.864999999999995 L726.5 63.135000000000005" stroke-width="9.75"></path><path d="M739.5 39.315 L739.5 60.685" stroke-width="9.75"></path><path d="M752.5 31.165 L752.5 68.845" stroke-width="9.75"></path><path d="M765.5 43.075 L765.5 56.925" stroke-width="9.75"></path><path d="M778.5 49.935 L778.5 50.065" stroke-width="9.75"></path><path d="M791.5 30.885 L791.5 69.115" stroke-width="9.75"></path><path d="M804.5 37.285 L804.5 62.715" stroke-width="9.75"></path><path d="M817.5 35.055 L817.5 64.935" stroke-width="9.75"></path><path d="M830.5 48.645 L830.5 51.355" stroke-width="9.75"></path><path d="M843.5 34.394999999999996 L843.5 65.595" stroke-width="9.75"></path><path d="M856.5 42.015 L856.5 57.985" stroke-width="9.75"></path><path d="M869.5 45.325 L869.5 54.675" stroke-width="9.75"></path><path d="M882.5 46.605 L882.5 53.395" stroke-width="9.75"></path><path d="M895.5 30.115 L895.5 39.864999999999995" stroke-width="9.75"></path><path d="M895.5 54.489999999999995 L895.5 69.885" stroke-width="9.75"></path><path d="M908.5 33.945 L908.5 66.065" stroke-width="9.75"></path><path d="M921.5 50.095 L921.5 49.905" stroke-width="9.75"></path><path d="M934.5 47.825 L934.5 52.175" stroke-width="9.75"></path><path d="M947.5 35.605000000000004 L947.5 64.395" stroke-width="9.75"></path><path d="M960.5 32.795 L960.5 67.205" stroke-width="9.75"></path><path d="M973.5 38.405 L973.5 61.595" stroke-width="9.75"></path><path d="M986.5 46.345 L986.5 53.655" stroke-width="9.75"></path><path d="M999.5 41.075 L999.5 58.925" stroke-width="9.75"></path><path d="M1012.5 41.735 L1012.5 58.265" stroke-width="9.75"></path><path d="M1025.5 33.085 L1025.5 66.905" stroke-width="9.75"></path><path d="M1038.5 39.105 L1038.5 60.894999999999996" stroke-width="9.75"></path><path d="M1051.5 48.925 L1051.5 51.075" stroke-width="9.75"></path><path d="M1064.5 46.005 L1064.5 54.005" stroke-width="9.75"></path><path d="M1077.5 30.895 L1077.5 69.095" stroke-width="9.75"></path></g></g><defs><mask id="SvgjsMask1521"><rect width="1440" height="100" fill="#ffffff"></rect></mask><linearGradient x1="100%" y1="50%" x2="0%" y2="50%" gradientUnits="userSpaceOnUse" id="SvgjsLinearGradient1522"><stop stop-color="#0e2a47" offset="0"></stop><stop stop-color="rgba(106, 57, 185, 1)" offset="1"></stop></linearGradient><linearGradient x1="352.8" y1="50" x2="1087.2" y2="50" gradientUnits="userSpaceOnUse" id="SvgjsLinearGradient1523"><stop stop-color="rgba(255, 139, 31, 1)" offset="0.06"></stop><stop stop-color="rgba(248, 237, 209, 1)" offset="1"></stop></linearGradient></defs></svg>