<svg xmlns="http://www.w3.org/2000/svg" version="1.1" xmlns:xlink="http://www.w3.org/1999/xlink" xmlns:svgjs="http://svgjs.com/svgjs" width="2000" height="100" preserveAspectRatio="none" viewBox="0 0 2000 100"><g mask="url(&quot;#SvgjsMask1533&quot;)" fill="none"><rect width="2000" height="100" x="0" y="0" fill="url(#SvgjsLinearGradient1534)"></rect><g transform="translate(660, 0)" stroke-linecap="round" stroke="url(#SvgjsLinearGradient1535)"><path d="M499.5 41.255 L499.5 58.745" stroke-width="9.75"></path><path d="M512.5 41.705 L512.5 58.295" stroke-width="9.75"></path><path d="M525.5 42.835 L525.5 57.165" stroke-width="9.75"></path><path d="M538.5 51.205 L538.5 48.795" stroke-width="9.75"></path><path d="M551.5 31.465 L551.5 68.535" stroke-width="9.75"></path><path d="M564.5 50.145 L564.5 49.855" stroke-width="9.75"></path><path d="M577.5 39.615 L577.5 60.385000000000005" stroke-width="9.75"></path><path d="M590.5 44.695 L590.5 55.305" stroke-width="9.75"></path><path d="M603.5 43.075 L603.5 56.925" stroke-width="9.75"></path><path d="M616.5 46.555 L616.5 53.445" stroke-width="9.75"></path><path d="M629.5 50.345 L629.5 49.655" stroke-width="9.75"></path><path d="M642.5 36.355000000000004 L642.5 63.644999999999996" stroke-width="9.75"></path><path d="M655.5 47.565 L655.5 52.435" stroke-width="9.75"></path><path d="M668.5 39.595 L668.5 60.405" stroke-width="9.75"></path><path d="M681.5 50.235 L681.5 49.765" stroke-width="9.75"></path><path d="M694.5 51.565 L694.5 48.435" stroke-width="9.75"></path><path d="M707.5 46.545 L707.5 53.455" stroke-width="9.75"></path><path d="M720.5 50.265 L720.5 49.735" stroke-width="9.75"></path><path d="M733.5 45.045 L733.5 54.955" stroke-width="9.75"></path><path d="M746.5 44.885 L746.5 55.115" stroke-width="9.75"></path><path d="M759.5 43.765 L759.5 56.235" stroke-width="9.75"></path><path d="M772.5 41.435 L772.5 58.565" stroke-width="9.75"></path><path d="M785.5 49.985 L785.5 50.015" stroke-width="9.75"></path><path d="M798.5 43.365 L798.5 56.635" stroke-width="9.75"></path><path d="M811.5 30.665 L811.5 69.335" stroke-width="9.75"></path><path d="M824.5 49.785 L824.5 50.215" stroke-width="9.75"></path><path d="M837.5 39.425 L837.5 60.575" stroke-width="9.75"></path><path d="M850.5 38.525 L850.5 61.474999999999994" stroke-width="9.75"></path><path d="M863.5 41.125 L863.5 58.875" stroke-width="9.75"></path><path d="M876.5 31.075 L876.5 68.935" stroke-width="9.75"></path><path d="M889.5 47.815 L889.5 52.185" stroke-width="9.75"></path><path d="M902.5 49.895 L902.5 50.105" stroke-width="9.75"></path><path d="M915.5 51.525 L915.5 48.475" stroke-width="9.75"></path><path d="M928.5 46.995 L928.5 53.005" stroke-width="9.75"></path><path d="M941.5 40.965 L941.5 59.035" stroke-width="9.75"></path><path d="M954.5 45.825 L954.5 54.175" stroke-width="9.75"></path><path d="M967.5 46.405 L967.5 53.595" stroke-width="9.75"></path><path d="M980.5 44.265 L980.5 55.735" stroke-width="9.75"></path><path d="M993.5 47.755 L993.5 52.245" stroke-width="9.75"></path><path d="M1006.5 36.085 L1006.5 63.905" stroke-width="9.75"></path><path d="M1019.5 34.735 L1019.5 65.265" stroke-width="9.75"></path><path d="M1032.5 35.015 L1032.5 64.985" stroke-width="9.75"></path><path d="M1045.5 45.385 L1045.5 54.615" stroke-width="9.75"></path><path d="M1058.5 47.725 L1058.5 52.275" stroke-width="9.75"></path><path d="M1071.5 51.785 L1071.5 48.215" stroke-width="9.75"></path><path d="M1084.5 37.875 L1084.5 62.125" stroke-width="9.75"></path><path d="M1097.5 51.045 L1097.5 48.955" stroke-width="9.75"></path><path d="M1110.5 35.695 L1110.5 64.305" stroke-width="9.75"></path><path d="M1123.5 41.855 L1123.5 58.145" stroke-width="9.75"></path><path d="M1136.5 36.125 L1136.5 63.875" stroke-width="9.75"></path><path d="M1149.5 39.825 L1149.5 60.175" stroke-width="9.75"></path><path d="M1162.5 33.965 L1162.5 66.035" stroke-width="9.75"></path><path d="M1175.5 44.075 L1175.5 55.925" stroke-width="9.75"></path><path d="M1188.5 43.465 L1188.5 56.535" stroke-width="9.75"></path><path d="M1201.5 36.605000000000004 L1201.5 63.405" stroke-width="9.75"></path><path d="M1214.5 44.715 L1214.5 55.285" stroke-width="9.75"></path><path d="M1227.5 38.755 L1227.5 61.254999999999995" stroke-width="9.75"></path><path d="M1240.5 35.325 L1240.5 64.675" stroke-width="9.75"></path><path d="M1253.5 35.864999999999995 L1253.5 64.135" stroke-width="9.75"></path><path d="M1266.5 42.845 L1266.5 57.155" stroke-width="9.75"></path><path d="M1279.5 32.625 L1279.5 67.375" stroke-width="9.75"></path><path d="M1292.5 50.035 L1292.5 49.965" stroke-width="9.75"></path><path d="M1305.5 33.965 L1305.5 66.035" stroke-width="9.75"></path><path d="M1318.5 38.755 L1318.5 61.254999999999995" stroke-width="9.75"></path><path d="M1331.5 43.425 L1331.5 56.575" stroke-width="9.75"></path><path d="M1344.5 38.935 L1344.5 61.065" stroke-width="9.75"></path><path d="M1357.5 42.015 L1357.5 57.985" stroke-width="9.75"></path><path d="M1370.5 48.105 L1370.5 51.895" stroke-width="9.75"></path><path d="M1383.5 52.245 L1383.5 47.755" stroke-width="9.75"></path><path d="M1396.5 35.885000000000005 L1396.5 64.115" stroke-width="9.75"></path><path d="M1409.5 48.965 L1409.5 51.035" stroke-width="9.75"></path><path d="M1422.5 50.615 L1422.5 49.385" stroke-width="9.75"></path><path d="M1435.5 39.895 L1435.5 60.105000000000004" stroke-width="9.75"></path><path d="M1448.5 47.215 L1448.5 52.785" stroke-width="9.75"></path><path d="M1461.5 42.565 L1461.5 57.435" stroke-width="9.75"></path><path d="M1474.5 29.375 L1474.5 70.625" stroke-width="9.75"></path><path d="M1487.5 32.385000000000005 L1487.5 67.615" stroke-width="9.75"></path><path d="M1500.5 34.565 L1500.5 65.435" stroke-width="9.75"></path></g></g><defs><mask id="SvgjsMask1533"><rect width="2000" height="100" fill="#ffffff"></rect></mask><linearGradient x1="100%" y1="50%" x2="0%" y2="50%" gradientUnits="userSpaceOnUse" id="SvgjsLinearGradient1534"><stop stop-color="#0e2a47" offset="0"></stop><stop stop-color="rgba(106, 57, 185, 1)" offset="1"></stop></linearGradient><linearGradient x1="490" y1="50" x2="1510" y2="50" gradientUnits="userSpaceOnUse" id="SvgjsLinearGradient1535"><stop stop-color="rgba(255, 139, 31, 1)" offset="0.06"></stop><stop stop-color="rgba(248, 237, 209, 1)" offset="1"></stop></linearGradient></defs></svg>