<svg xmlns="http://www.w3.org/2000/svg" version="1.1" xmlns:xlink="http://www.w3.org/1999/xlink" xmlns:svgjs="http://svgjs.com/svgjs" width="1440" height="80" preserveAspectRatio="none" viewBox="0 0 1440 80"><g mask="url(&quot;#SvgjsMask1328&quot;)" fill="none"><g mask="url(&quot;#SvgjsMask1329&quot;)"><path d="M225 35L235 45L245 45L255 45M65 35L75 45L85 45L95 45L105 45L115 45L125 45L135 45L145 55L155 55L165 55L175 55L185 45M535 65L545 55L555 55L565 55L575 55L585 55L595 45L605 45L615 45L625 45L635 45L645 45L655 45M435 65L445 55L455 55L465 55L475 55L485 55L495 55L505 55L515 55L525 55L535 55L545 45L555 45L565 35L575 35L585 35L595 35L605 35L615 35L625 35L635 35L645 35M165 35L175 45M145 35L155 45L165 45M55 35L65 45L75 55L85 55L95 55L105 55L115 55L125 55L135 55M255 35L265 35L275 35L285 35L295 35L305 35L315 35M45 45L55 45L65 55M425 65L435 55L445 45L455 45L465 45L475 45L485 45L495 45L505 45L515 45L525 45L535 45L545 35L555 25L565 25L575 25L585 25L595 25L605 25L615 25L625 25M275 55L285 45L295 45L305 45L315 45M595 55L605 65L615 65L625 65L635 65L645 65L655 55L665 45L675 35M405 65L415 55L425 55M325 65L335 55L345 55L355 55L365 55L375 55L385 55L395 55L405 55L415 45L425 45L435 45L445 35L455 35L465 25L475 25L485 25L495 25L505 25L515 25L525 25L535 35M305 65L315 55L325 55L335 45L345 45L355 45L365 35L375 35L385 35L395 35L405 25L415 25L425 25M-5 45L5 45L15 45L25 45L35 45L45 45L55 35L65 35L75 35L85 35L95 35L105 35L115 35L125 35L135 35L145 35L155 35L165 35L175 35L185 35L195 35L205 35L215 35L225 35L235 35L245 35L255 35L265 45L275 55L285 55L295 65L305 65L315 65L325 65L335 65L345 65L355 65L365 65L375 65L385 65L395 65L405 65L415 65L425 65L435 65L445 65L455 65L465 65L475 65L485 65L495 65L505 65L515 65L525 65L535 65L545 65L555 65L565 65L575 65L585 65L595 55L605 55" stroke="rgba(248, 237, 209, 1)" stroke-width="1.67"></path><path d="M602.5 55 a2.5 2.5 0 1 0 5 0 a2.5 2.5 0 1 0 -5 0zM252.5 45 a2.5 2.5 0 1 0 5 0 a2.5 2.5 0 1 0 -5 0zM182.5 45 a2.5 2.5 0 1 0 5 0 a2.5 2.5 0 1 0 -5 0zM652.5 45 a2.5 2.5 0 1 0 5 0 a2.5 2.5 0 1 0 -5 0zM642.5 35 a2.5 2.5 0 1 0 5 0 a2.5 2.5 0 1 0 -5 0zM172.5 45 a2.5 2.5 0 1 0 5 0 a2.5 2.5 0 1 0 -5 0zM162.5 45 a2.5 2.5 0 1 0 5 0 a2.5 2.5 0 1 0 -5 0zM132.5 55 a2.5 2.5 0 1 0 5 0 a2.5 2.5 0 1 0 -5 0zM312.5 35 a2.5 2.5 0 1 0 5 0 a2.5 2.5 0 1 0 -5 0zM62.5 55 a2.5 2.5 0 1 0 5 0 a2.5 2.5 0 1 0 -5 0zM622.5 25 a2.5 2.5 0 1 0 5 0 a2.5 2.5 0 1 0 -5 0zM312.5 45 a2.5 2.5 0 1 0 5 0 a2.5 2.5 0 1 0 -5 0zM672.5 35 a2.5 2.5 0 1 0 5 0 a2.5 2.5 0 1 0 -5 0zM422.5 55 a2.5 2.5 0 1 0 5 0 a2.5 2.5 0 1 0 -5 0zM532.5 35 a2.5 2.5 0 1 0 5 0 a2.5 2.5 0 1 0 -5 0zM422.5 25 a2.5 2.5 0 1 0 5 0 a2.5 2.5 0 1 0 -5 0z" fill="rgba(248, 237, 209, 1)"></path><path d="M325 25L335 35M345 25L355 35M-5 35L5 35L15 35L25 35L35 35L45 35L55 25L65 25L75 25L85 25L95 25L105 25L115 25L125 25L135 25L145 25L155 25L165 25L175 25L185 25L195 25L205 25L215 25L225 25L235 25L245 25L255 25L265 25L275 25L285 25L295 25L305 25L315 25L325 25L335 25L345 25L355 25L365 25L375 25L385 25L395 25" stroke="rgba(255, 139, 31, 1)" stroke-width="1.67"></path><path d="M392.5 25 a2.5 2.5 0 1 0 5 0 a2.5 2.5 0 1 0 -5 0zM332.5 35 a2.5 2.5 0 1 0 5 0 a2.5 2.5 0 1 0 -5 0zM352.5 35 a2.5 2.5 0 1 0 5 0 a2.5 2.5 0 1 0 -5 0z" fill="rgba(255, 139, 31, 1)"></path><path d="M255 55L265 65M175 65L185 65L195 65L205 65M245 55L255 65M205 45L215 55L225 65L235 65L245 65M25 55L35 65L45 65M5 55L15 65L25 65M195 45L205 55M-5 55L5 55L15 55L25 55L35 55L45 55L55 65L65 65L75 65L85 65L95 65L105 65L115 65L125 65L135 65L145 65L155 65L165 65L175 65L185 55L195 45L205 45L215 45L225 55L235 55L245 55L255 55L265 55L275 65L285 65" stroke="rgba(248, 237, 209, 1)" stroke-width="1.67"></path><path d="M282.5 65 a2.5 2.5 0 1 0 5 0 a2.5 2.5 0 1 0 -5 0zM262.5 65 a2.5 2.5 0 1 0 5 0 a2.5 2.5 0 1 0 -5 0zM202.5 65 a2.5 2.5 0 1 0 5 0 a2.5 2.5 0 1 0 -5 0zM252.5 65 a2.5 2.5 0 1 0 5 0 a2.5 2.5 0 1 0 -5 0zM242.5 65 a2.5 2.5 0 1 0 5 0 a2.5 2.5 0 1 0 -5 0zM42.5 65 a2.5 2.5 0 1 0 5 0 a2.5 2.5 0 1 0 -5 0zM22.5 65 a2.5 2.5 0 1 0 5 0 a2.5 2.5 0 1 0 -5 0zM202.5 55 a2.5 2.5 0 1 0 5 0 a2.5 2.5 0 1 0 -5 0z" fill="rgba(248, 237, 209, 1)"></path><path d="M-5 25L5 25L15 25L25 25L35 25L45 25" stroke="rgba(248, 237, 209, 1)" stroke-width="1.67"></path><path d="M42.5 25 a2.5 2.5 0 1 0 5 0 a2.5 2.5 0 1 0 -5 0z" fill="rgba(248, 237, 209, 1)"></path></g></g><defs><mask id="SvgjsMask1328"><rect width="1440" height="80" fill="#ffffff"></rect></mask><mask id="SvgjsMask1329"><rect width="1440" height="80" fill="white"></rect><path d="M603.75 55 a1.25 1.25 0 1 0 2.5 0 a1.25 1.25 0 1 0 -2.5 0zM253.75 45 a1.25 1.25 0 1 0 2.5 0 a1.25 1.25 0 1 0 -2.5 0zM183.75 45 a1.25 1.25 0 1 0 2.5 0 a1.25 1.25 0 1 0 -2.5 0zM653.75 45 a1.25 1.25 0 1 0 2.5 0 a1.25 1.25 0 1 0 -2.5 0zM643.75 35 a1.25 1.25 0 1 0 2.5 0 a1.25 1.25 0 1 0 -2.5 0zM173.75 45 a1.25 1.25 0 1 0 2.5 0 a1.25 1.25 0 1 0 -2.5 0zM163.75 45 a1.25 1.25 0 1 0 2.5 0 a1.25 1.25 0 1 0 -2.5 0zM133.75 55 a1.25 1.25 0 1 0 2.5 0 a1.25 1.25 0 1 0 -2.5 0zM313.75 35 a1.25 1.25 0 1 0 2.5 0 a1.25 1.25 0 1 0 -2.5 0zM63.75 55 a1.25 1.25 0 1 0 2.5 0 a1.25 1.25 0 1 0 -2.5 0zM623.75 25 a1.25 1.25 0 1 0 2.5 0 a1.25 1.25 0 1 0 -2.5 0zM313.75 45 a1.25 1.25 0 1 0 2.5 0 a1.25 1.25 0 1 0 -2.5 0zM673.75 35 a1.25 1.25 0 1 0 2.5 0 a1.25 1.25 0 1 0 -2.5 0zM423.75 55 a1.25 1.25 0 1 0 2.5 0 a1.25 1.25 0 1 0 -2.5 0zM533.75 35 a1.25 1.25 0 1 0 2.5 0 a1.25 1.25 0 1 0 -2.5 0zM423.75 25 a1.25 1.25 0 1 0 2.5 0 a1.25 1.25 0 1 0 -2.5 0z" fill="black"></path><path d="M393.75 25 a1.25 1.25 0 1 0 2.5 0 a1.25 1.25 0 1 0 -2.5 0zM333.75 35 a1.25 1.25 0 1 0 2.5 0 a1.25 1.25 0 1 0 -2.5 0zM353.75 35 a1.25 1.25 0 1 0 2.5 0 a1.25 1.25 0 1 0 -2.5 0z" fill="black"></path><path d="M283.75 65 a1.25 1.25 0 1 0 2.5 0 a1.25 1.25 0 1 0 -2.5 0zM263.75 65 a1.25 1.25 0 1 0 2.5 0 a1.25 1.25 0 1 0 -2.5 0zM203.75 65 a1.25 1.25 0 1 0 2.5 0 a1.25 1.25 0 1 0 -2.5 0zM253.75 65 a1.25 1.25 0 1 0 2.5 0 a1.25 1.25 0 1 0 -2.5 0zM243.75 65 a1.25 1.25 0 1 0 2.5 0 a1.25 1.25 0 1 0 -2.5 0zM43.75 65 a1.25 1.25 0 1 0 2.5 0 a1.25 1.25 0 1 0 -2.5 0zM23.75 65 a1.25 1.25 0 1 0 2.5 0 a1.25 1.25 0 1 0 -2.5 0zM203.75 55 a1.25 1.25 0 1 0 2.5 0 a1.25 1.25 0 1 0 -2.5 0z" fill="black"></path><path d="M43.75 25 a1.25 1.25 0 1 0 2.5 0 a1.25 1.25 0 1 0 -2.5 0z" fill="black"></path></mask></defs></svg>