<svg xmlns="http://www.w3.org/2000/svg" version="1.1" xmlns:xlink="http://www.w3.org/1999/xlink" xmlns:svgjs="http://svgjs.com/svgjs" width="1440" height="600" preserveAspectRatio="none" viewBox="0 0 1440 600"><g mask="url(&quot;#SvgjsMask1037&quot;)" fill="none"><rect width="1440" height="600" x="0" y="0" fill="rgba(106, 57, 185, 1)"></rect><path d="M27 600L627 0L1234.5 0L634.5 600z" fill="url(#SvgjsLinearGradient1038)"></path><path d="M559.2 600L1159.2 0L1475.7 0L875.7 600z" fill="url(#SvgjsLinearGradient1038)"></path><path d="M1360 600L760 0L353.5 0L953.5 600z" fill="url(#SvgjsLinearGradient1039)"></path><path d="M952.8 600L352.79999999999995 0L-208.20000000000005 0L391.79999999999995 600z" fill="url(#SvgjsLinearGradient1039)"></path><path d="M1072.6931867992857 600L1440 232.69318679928574L1440 600z" fill="url(#SvgjsLinearGradient1038)"></path><path d="M0 600L367.30681320071426 600L 0 232.69318679928574z" fill="url(#SvgjsLinearGradient1039)"></path></g><defs><mask id="SvgjsMask1037"><rect width="1440" height="600" fill="#ffffff"></rect></mask><linearGradient x1="0%" y1="100%" x2="100%" y2="0%" id="SvgjsLinearGradient1038"><stop stop-color="rgba(255, 139, 31, 1)" offset="0"></stop><stop stop-opacity="0" stop-color="rgba(255, 139, 31, 1)" offset="0.66"></stop></linearGradient><linearGradient x1="100%" y1="100%" x2="0%" y2="0%" id="SvgjsLinearGradient1039"><stop stop-color="rgba(255, 139, 31, 1)" offset="0"></stop><stop stop-opacity="0" stop-color="rgba(255, 139, 31, 1)" offset="0.66"></stop></linearGradient></defs></svg>